<?xml version="1.0" standalone="no"?>
<!DOCTYPE svg PUBLIC "-//W3C//DTD SVG 20010904//EN"
 "http://www.w3.org/TR/2001/REC-SVG-20010904/DTD/svg10.dtd">
<svg version="1.0" xmlns="http://www.w3.org/2000/svg"
 width="214.000000pt" height="256.000000pt" viewBox="0 0 214.000000 256.000000"
 preserveAspectRatio="xMidYMid meet">

<g transform="translate(0.000000,256.000000) scale(0.100000,-0.100000)"
fill="#000000" stroke="none">
<path d="M537 2172 l-527 -386 0 -501 1 -500 521 -385 c287 -212 528 -385 536
-385 7 0 249 173 538 385 l524 385 0 501 0 501 -530 386 c-291 213 -531 387
-532 387 -2 -1 -240 -175 -531 -388z m523 124 l0 -235 -339 -245 c-186 -135
-346 -248 -354 -252 -22 -8 -330 217 -316 231 17 18 994 733 1002 734 4 1 7
-104 7 -233z m538 -136 c275 -201 500 -369 498 -374 -1 -5 -72 -59 -157 -121
l-155 -112 -352 254 -352 255 0 235 c0 129 4 233 8 231 5 -1 234 -167 510
-368z m-196 -356 c178 -130 331 -244 341 -253 16 -16 -3 -31 -322 -264 -187
-136 -345 -247 -351 -247 -10 0 -458 323 -647 466 l-43 32 347 251 c191 138
349 251 350 251 1 0 148 -106 325 -236z m-1225 -155 c76 -56 142 -104 146
-109 7 -6 -256 -204 -287 -216 -8 -3 -11 58 -11 211 0 118 3 215 7 215 3 0 68
-45 145 -101z m1943 -114 c0 -118 -3 -215 -7 -215 -3 0 -73 48 -154 107 l-149
106 103 75 c56 41 122 90 147 108 25 18 48 34 53 34 4 0 7 -97 7 -215z m-1362
-310 l301 -220 1 -228 c0 -149 -4 -227 -10 -225 -6 2 -236 167 -511 367 -426
309 -499 365 -487 377 7 8 79 61 158 118 l145 104 51 -36 c28 -21 186 -136
352 -257z m1205 167 c136 -100 146 -110 130 -124 -33 -28 -991 -718 -997 -718
-4 0 -5 104 -4 232 l3 232 345 252 c250 183 349 250 360 244 8 -5 81 -58 163
-118z"/>
</g>
</svg>
